<svg xmlns="http://www.w3.org/2000/svg" xmlns:xlink="http://www.w3.org/1999/xlink" width="40" zoomAndPan="magnify" viewBox="0 0 30 32.999998" height="44" preserveAspectRatio="xMidYMid meet" version="1.0"><defs><clipPath id="753fe67eb8"><path d="M 0 0 L 29.761719 0 L 29.761719 32.640625 L 0 32.640625 Z M 0 0 " clip-rule="nonzero"/></clipPath><clipPath id="2231cf4079"><path d="M 29.628906 31.964844 L 0.648438 32.558594 L -0.0078125 0.519531 L 28.972656 -0.0742188 Z M 29.628906 31.964844 " clip-rule="nonzero"/></clipPath><clipPath id="546d429f77"><path d="M 22.882812 32.101562 L 7.394531 32.421875 C 3.667969 32.496094 0.585938 29.539062 0.507812 25.808594 L 0.128906 7.332031 C 0.0546875 3.605469 3.015625 0.523438 6.742188 0.445312 L 22.226562 0.128906 C 25.953125 0.0507812 29.035156 3.011719 29.113281 6.738281 L 29.492188 25.214844 C 29.566406 28.945312 26.609375 32.027344 22.882812 32.101562 Z M 22.882812 32.101562 " clip-rule="nonzero"/></clipPath><clipPath id="289bddcdd6"><path d="M 0 0 L 29.761719 0 L 29.761719 32.640625 L 0 32.640625 Z M 0 0 " clip-rule="nonzero"/></clipPath><clipPath id="5543eb91ef"><path d="M 29.628906 31.964844 L 0.648438 32.558594 L -0.0078125 0.519531 L 28.972656 -0.0742188 Z M 29.628906 31.964844 " clip-rule="nonzero"/></clipPath><clipPath id="3678301f7a"><path d="M 22.882812 32.101562 L 7.394531 32.421875 C 3.667969 32.496094 0.585938 29.539062 0.507812 25.808594 L 0.128906 7.332031 C 0.0546875 3.605469 3.015625 0.523438 6.742188 0.445312 L 22.226562 0.128906 C 25.953125 0.0507812 29.035156 3.011719 29.113281 6.738281 L 29.492188 25.214844 C 29.566406 28.945312 26.609375 32.027344 22.882812 32.101562 Z M 22.882812 32.101562 " clip-rule="nonzero"/></clipPath><clipPath id="06f0bafed2"><rect x="0" width="30" y="0" height="33"/></clipPath><clipPath id="c6692cfde5"><path d="M 9 5 L 21 5 L 21 28 L 9 28 Z M 9 5 " clip-rule="nonzero"/></clipPath><clipPath id="bc5f3569e2"><path d="M 8.964844 5.609375 L 20.304688 5.378906 L 20.757812 27.351562 L 9.414062 27.585938 Z M 8.964844 5.609375 " clip-rule="nonzero"/></clipPath><clipPath id="57640795f8"><path d="M 8.964844 5.609375 L 20.304688 5.378906 L 20.757812 27.351562 L 9.414062 27.585938 Z M 8.964844 5.609375 " clip-rule="nonzero"/></clipPath><clipPath id="b843d5a8de"><rect x="0" width="30" y="0" height="33"/></clipPath></defs><g transform="matrix(1, 0, 0, 1, 0, 0.000000000000004502)"><g clip-path="url(#b843d5a8de)"><g clip-path="url(#753fe67eb8)"><g clip-path="url(#2231cf4079)"><g clip-path="url(#546d429f77)"><g transform="matrix(1, 0, 0, 1, 0, 0.000000000000004502)"><g clip-path="url(#06f0bafed2)"><g clip-path="url(#289bddcdd6)"><g clip-path="url(#5543eb91ef)"><g clip-path="url(#3678301f7a)"><path fill="#ffa36b" d="M 29.628906 31.964844 L 0.648438 32.558594 L -0.0078125 0.632812 L 28.976562 0.0390625 Z M 29.628906 31.964844 " fill-opacity="1" fill-rule="nonzero"/></g></g></g></g></g></g></g></g><g clip-path="url(#c6692cfde5)"><g clip-path="url(#bc5f3569e2)"><g clip-path="url(#57640795f8)"><path fill="#ffffff" d="M 20.402344 16.703125 C 20.410156 16.6875 20.417969 16.675781 20.421875 16.660156 C 20.429688 16.644531 20.433594 16.628906 20.4375 16.613281 C 20.441406 16.597656 20.445312 16.585938 20.449219 16.570312 C 20.449219 16.554688 20.449219 16.539062 20.453125 16.523438 C 20.453125 16.507812 20.457031 16.492188 20.453125 16.476562 C 20.453125 16.460938 20.453125 16.445312 20.449219 16.429688 C 20.449219 16.414062 20.449219 16.398438 20.445312 16.382812 C 20.441406 16.367188 20.433594 16.351562 20.429688 16.339844 C 20.425781 16.324219 20.421875 16.308594 20.414062 16.292969 C 20.410156 16.277344 20.402344 16.265625 20.394531 16.25 C 20.386719 16.238281 20.378906 16.222656 20.367188 16.207031 C 20.359375 16.195312 20.347656 16.183594 20.335938 16.171875 C 20.328125 16.160156 20.320312 16.148438 20.308594 16.136719 L 9.863281 5.816406 C 9.667969 5.625 9.359375 5.625 9.167969 5.820312 C 8.976562 6.011719 8.980469 6.320312 9.171875 6.511719 L 19.28125 16.5 L 9.589844 26.894531 C 9.40625 27.089844 9.417969 27.402344 9.613281 27.585938 C 9.710938 27.675781 9.835938 27.71875 9.957031 27.71875 C 10.085938 27.714844 10.210938 27.664062 10.308594 27.5625 L 20.324219 16.820312 C 20.335938 16.808594 20.339844 16.796875 20.351562 16.785156 C 20.359375 16.773438 20.371094 16.761719 20.378906 16.746094 C 20.390625 16.730469 20.394531 16.71875 20.402344 16.703125 Z M 20.402344 16.703125 " fill-opacity="1" fill-rule="nonzero"/></g></g></g></g></g></svg>