<svg xmlns="http://www.w3.org/2000/svg" xmlns:xlink="http://www.w3.org/1999/xlink" width="39" zoomAndPan="magnify" viewBox="0 0 29.25 32.249998" height="43" preserveAspectRatio="xMidYMid meet" version="1.0"><defs><clipPath id="b0d920ab45"><path d="M 0 0.0390625 L 28.519531 0.0390625 L 28.519531 31.480469 L 0 31.480469 Z M 0 0.0390625 " clip-rule="nonzero"/></clipPath><clipPath id="4db4bed712"><path d="M 0 0.0390625 L 28.261719 0.0390625 L 28.261719 31.28125 L 0 31.28125 Z M 0 0.0390625 " clip-rule="nonzero"/></clipPath><clipPath id="8ac296f5b5"><path d="M 6.582031 0.0390625 L 21.683594 0.0390625 C 25.316406 0.0390625 28.261719 2.984375 28.261719 6.617188 L 28.261719 24.636719 C 28.261719 28.273438 25.316406 31.21875 21.683594 31.21875 L 6.582031 31.21875 C 2.945312 31.21875 0 28.273438 0 24.636719 L 0 6.617188 C 0 2.984375 2.945312 0.0390625 6.582031 0.0390625 Z M 6.582031 0.0390625 " clip-rule="nonzero"/></clipPath><clipPath id="b74fba467d"><path d="M 0 0.0390625 L 28.261719 0.0390625 L 28.261719 31.28125 L 0 31.28125 Z M 0 0.0390625 " clip-rule="nonzero"/></clipPath><clipPath id="7738b4b68f"><path d="M 6.582031 0.0390625 L 21.683594 0.0390625 C 25.316406 0.0390625 28.261719 2.984375 28.261719 6.617188 L 28.261719 24.636719 C 28.261719 28.273438 25.316406 31.21875 21.683594 31.21875 L 6.582031 31.21875 C 2.945312 31.21875 0 28.273438 0 24.636719 L 0 6.617188 C 0 2.984375 2.945312 0.0390625 6.582031 0.0390625 Z M 6.582031 0.0390625 " clip-rule="nonzero"/></clipPath><clipPath id="3ab6ad1dd2"><rect x="0" width="29" y="0" height="32"/></clipPath><clipPath id="d82d0a7410"><path d="M 8.5625 4.714844 L 19.621094 4.714844 L 19.621094 26.144531 L 8.5625 26.144531 Z M 8.5625 4.714844 " clip-rule="nonzero"/></clipPath><clipPath id="e967029741"><rect x="0" width="29" y="0" height="32"/></clipPath></defs><g clip-path="url(#b0d920ab45)"><g transform="matrix(1, 0, 0, 1, 0, 0.00000000000000068)"><g clip-path="url(#e967029741)"><g clip-path="url(#4db4bed712)"><g clip-path="url(#8ac296f5b5)"><g transform="matrix(1, 0, 0, 1, 0, 0.00000000000000068)"><g clip-path="url(#3ab6ad1dd2)"><g clip-path="url(#b74fba467d)"><g clip-path="url(#7738b4b68f)"><path fill="#ffa36b" d="M 0 0.0390625 L 28.261719 0.0390625 L 28.261719 31.171875 L 0 31.171875 Z M 0 0.0390625 " fill-opacity="1" fill-rule="nonzero"/></g></g></g></g></g></g><g clip-path="url(#d82d0a7410)"><path fill="#ffffff" d="M 8.695312 15.105469 C 8.6875 15.117188 8.679688 15.128906 8.675781 15.144531 C 8.667969 15.160156 8.664062 15.175781 8.660156 15.191406 C 8.65625 15.203125 8.648438 15.21875 8.648438 15.234375 C 8.644531 15.25 8.644531 15.265625 8.640625 15.28125 C 8.640625 15.292969 8.640625 15.308594 8.640625 15.324219 C 8.640625 15.339844 8.640625 15.355469 8.640625 15.367188 C 8.644531 15.382812 8.644531 15.398438 8.648438 15.414062 C 8.652344 15.429688 8.65625 15.445312 8.660156 15.457031 C 8.664062 15.472656 8.667969 15.488281 8.675781 15.503906 C 8.679688 15.519531 8.6875 15.53125 8.695312 15.542969 C 8.703125 15.558594 8.707031 15.574219 8.71875 15.585938 C 8.726562 15.601562 8.738281 15.613281 8.746094 15.625 C 8.757812 15.636719 8.761719 15.648438 8.773438 15.65625 L 18.753906 25.929688 C 18.9375 26.117188 19.238281 26.121094 19.429688 25.9375 C 19.617188 25.753906 19.621094 25.453125 19.4375 25.261719 L 9.78125 15.324219 L 19.4375 5.386719 C 19.621094 5.195312 19.617188 4.894531 19.429688 4.710938 C 19.335938 4.621094 19.214844 4.574219 19.09375 4.574219 C 18.96875 4.574219 18.847656 4.625 18.753906 4.71875 L 8.773438 14.992188 C 8.761719 15 8.757812 15.011719 8.746094 15.023438 C 8.738281 15.035156 8.726562 15.046875 8.71875 15.0625 C 8.707031 15.074219 8.703125 15.089844 8.695312 15.105469 Z M 8.695312 15.105469 " fill-opacity="1" fill-rule="nonzero"/></g></g></g></g></svg>