<svg xmlns="http://www.w3.org/2000/svg" xmlns:xlink="http://www.w3.org/1999/xlink" width="45" zoomAndPan="magnify" viewBox="0 0 33.75 20.25" height="27" preserveAspectRatio="xMidYMid meet" version="1.0"><defs><clipPath id="abf91ced6b"><path d="M 0.480469 0 L 33 0 L 33 18.804688 L 0.480469 18.804688 Z M 0.480469 0 " clip-rule="nonzero"/></clipPath></defs><g clip-path="url(#abf91ced6b)"><path fill="#0a1e3f" d="M 32.132812 18.757812 L 1.363281 18.757812 C 1.128906 18.757812 0.925781 18.675781 0.757812 18.507812 C 0.59375 18.339844 0.507812 18.140625 0.507812 17.902344 C 0.507812 17.667969 0.59375 17.464844 0.757812 17.296875 C 0.925781 17.132812 1.128906 17.046875 1.363281 17.046875 L 32.132812 17.046875 C 32.371094 17.046875 32.570312 17.132812 32.738281 17.296875 C 32.90625 17.464844 32.988281 17.667969 32.988281 17.902344 C 32.988281 18.140625 32.90625 18.339844 32.738281 18.507812 C 32.570312 18.675781 32.371094 18.757812 32.132812 18.757812 Z M 32.132812 10.234375 L 1.363281 10.234375 C 1.128906 10.234375 0.925781 10.148438 0.757812 9.980469 C 0.59375 9.816406 0.507812 9.613281 0.507812 9.378906 C 0.507812 9.140625 0.59375 8.941406 0.757812 8.773438 C 0.925781 8.605469 1.128906 8.523438 1.363281 8.523438 L 32.132812 8.523438 C 32.371094 8.523438 32.570312 8.605469 32.738281 8.773438 C 32.90625 8.941406 32.988281 9.140625 32.988281 9.378906 C 32.988281 9.613281 32.90625 9.816406 32.738281 9.980469 C 32.570312 10.148438 32.371094 10.234375 32.132812 10.234375 Z M 32.132812 1.710938 L 1.363281 1.710938 C 1.128906 1.710938 0.925781 1.625 0.757812 1.460938 C 0.59375 1.292969 0.507812 1.089844 0.507812 0.855469 C 0.507812 0.617188 0.59375 0.417969 0.757812 0.25 C 0.925781 0.0820312 1.128906 0 1.363281 0 L 32.132812 0 C 32.371094 0 32.570312 0.0820312 32.738281 0.25 C 32.90625 0.417969 32.988281 0.617188 32.988281 0.855469 C 32.988281 1.089844 32.90625 1.292969 32.738281 1.460938 C 32.570312 1.625 32.371094 1.710938 32.132812 1.710938 Z M 32.132812 1.710938 " fill-opacity="1" fill-rule="nonzero"/><path fill="#0a1e3f" d="M 32.132812 18.757812 L 1.363281 18.757812 C 1.128906 18.757812 0.925781 18.675781 0.757812 18.507812 C 0.59375 18.339844 0.507812 18.140625 0.507812 17.902344 C 0.507812 17.667969 0.59375 17.464844 0.757812 17.296875 C 0.925781 17.132812 1.128906 17.046875 1.363281 17.046875 L 32.132812 17.046875 C 32.371094 17.046875 32.570312 17.132812 32.738281 17.296875 C 32.90625 17.464844 32.988281 17.667969 32.988281 17.902344 C 32.988281 18.140625 32.90625 18.339844 32.738281 18.507812 C 32.570312 18.675781 32.371094 18.757812 32.132812 18.757812 Z M 32.132812 10.234375 L 1.363281 10.234375 C 1.128906 10.234375 0.925781 10.148438 0.757812 9.980469 C 0.59375 9.816406 0.507812 9.613281 0.507812 9.378906 C 0.507812 9.140625 0.59375 8.941406 0.757812 8.773438 C 0.925781 8.605469 1.128906 8.523438 1.363281 8.523438 L 32.132812 8.523438 C 32.371094 8.523438 32.570312 8.605469 32.738281 8.773438 C 32.90625 8.941406 32.988281 9.140625 32.988281 9.378906 C 32.988281 9.613281 32.90625 9.816406 32.738281 9.980469 C 32.570312 10.148438 32.371094 10.234375 32.132812 10.234375 Z M 32.132812 1.710938 L 1.363281 1.710938 C 1.128906 1.710938 0.925781 1.625 0.757812 1.460938 C 0.59375 1.292969 0.507812 1.089844 0.507812 0.855469 C 0.507812 0.617188 0.59375 0.417969 0.757812 0.25 C 0.925781 0.0820312 1.128906 0 1.363281 0 L 32.132812 0 C 32.371094 0 32.570312 0.0820312 32.738281 0.25 C 32.90625 0.417969 32.988281 0.617188 32.988281 0.855469 C 32.988281 1.089844 32.90625 1.292969 32.738281 1.460938 C 32.570312 1.625 32.371094 1.710938 32.132812 1.710938 Z M 32.132812 1.710938 " fill-opacity="1" fill-rule="nonzero"/></g></svg>