<svg xmlns="http://www.w3.org/2000/svg" xmlns:xlink="http://www.w3.org/1999/xlink" width="185" zoomAndPan="magnify" viewBox="0 0 138.75 138.749998" height="185" preserveAspectRatio="xMidYMid meet" version="1.0"><defs><clipPath id="7cee093cfc"><path d="M 0.472656 0.472656 L 138.222656 0.472656 L 138.222656 138.222656 L 0.472656 138.222656 Z M 0.472656 0.472656 " clip-rule="nonzero"/></clipPath></defs><g clip-path="url(#7cee093cfc)"><path fill="#ffffff" d="M 118.277344 20.683594 C 105.242188 7.648438 87.914062 0.472656 69.480469 0.472656 C 51.046875 0.472656 33.71875 7.648438 20.683594 20.683594 C 7.648438 33.71875 0.472656 51.046875 0.472656 69.480469 C 0.472656 87.914062 7.648438 105.242188 20.683594 118.277344 C 33.71875 131.3125 51.046875 138.492188 69.480469 138.492188 C 87.914062 138.492188 105.242188 131.3125 118.277344 118.277344 C 131.3125 105.242188 138.492188 87.914062 138.492188 69.480469 C 138.492188 51.046875 131.3125 33.71875 118.277344 20.683594 Z M 23.816406 23.816406 C 36.011719 11.617188 52.230469 4.898438 69.480469 4.898438 C 86.730469 4.898438 102.949219 11.617188 115.148438 23.816406 C 127.34375 36.011719 134.0625 52.230469 134.0625 69.480469 C 134.0625 83.820312 129.414062 97.445312 120.84375 108.640625 C 114.019531 99.101562 103.125 93.464844 91.292969 93.464844 L 47.671875 93.464844 C 35.839844 93.464844 24.941406 99.101562 18.121094 108.640625 C 9.546875 97.445312 4.898438 83.820312 4.898438 69.480469 C 4.898438 52.230469 11.617188 36.011719 23.816406 23.816406 Z M 69.480469 89.828125 C 87.210938 89.828125 101.636719 75.402344 101.636719 57.671875 C 101.636719 39.941406 87.210938 25.515625 69.480469 25.515625 C 51.75 25.515625 37.324219 39.941406 37.324219 57.671875 C 37.324219 75.402344 51.75 89.828125 69.480469 89.828125 Z M 69.480469 89.828125 " fill-opacity="1" fill-rule="nonzero"/></g></svg>